# xmcd CD database file
# Copyright (C) 1993-1998 Ti Kan
#
# Track frame offsets:
# 150
# 11180
# 28237
# 40777
# 55257
# 67917
# 80787
# 93605
# 108932
# 121025
# 132527
# 147325
# 161077
# 175537
# 189155
# 200115
#
# Disc length: 2897 seconds
# Revision: 0
# Processed by: cddbd v1.4b41PL1 Copyright (c) Steve Scherf et al.
# Submitted via: CDSpectrumPro v3.3.333
#
DISCID=e00b4f10
DTITLE=Various Artist - Australian Country Collection
DYEAR=1900
DGENRE=
TTITLE0=Bill and Boyd - Put another log on the fire
TTITLE1=Cash Backman - When I dream
TTITLE2=Bobby and Laurie - Carroll County accident
TTITLE3=Johnny Chester - She's my kind of woman
TTITLE4=The Hawking Brothers - Catfish John
TTITLE5=John Williamson - Old man emu
TTITLE6=The Bushwackers Band - Flash Jack
TTITLE7=Lee Conway - Thinking of you
TTITLE8=Johnny Chester - Midnight bus
TTITLE9=Bobby and Laurie - Through the eyes of love
TTITLE10=Lee and Christine Conway - Believe it or not
TTITLE11=Cash Backman - Caroline
TTITLE12=The Bushwackers Band - The shores of Botany Bay
TTITLE13=Bill and Boyd - The prisoner's song
TTITLE14=Lee Conway - Country days, country nights
TTITLE15=The Hawking Brothers - Me and Bobby McGee
EXTD=
EXTT0=
EXTT1=
EXTT2=
EXTT3=
EXTT4=
EXTT5=
EXTT6=
EXTT7=
EXTT8=
EXTT9=
EXTT10=
EXTT11=
EXTT12=
EXTT13=
EXTT14=
EXTT15=
PLAYORDER=
